<?xml version="1.0" encoding="UTF-8"?>
<svg width="800px" height="300px" viewBox="0 0 800 300" version="1.1" xmlns="http://www.w3.org/2000/svg">
    <defs>
        <linearGradient id="bgGradient" x1="0%" y1="0%" x2="100%" y2="100%">
            <stop offset="0%" stop-color="#000022" />
            <stop offset="100%" stop-color="#220033" />
        </linearGradient>
        <linearGradient id="mcpGradient" x1="0%" y1="0%" x2="100%" y2="100%">
            <stop offset="0%" stop-color="#7C4DFF" />
            <stop offset="100%" stop-color="#534292" />
        </linearGradient>
        <linearGradient id="frontendGradient" x1="0%" y1="0%" x2="100%" y2="100%">
            <stop offset="0%" stop-color="#3ECF8E" />
            <stop offset="100%" stop-color="#2E9D6C" />
        </linearGradient>
        <linearGradient id="adkGradient" x1="0%" y1="0%" x2="100%" y2="100%">
            <stop offset="0%" stop-color="#EA4335" />
            <stop offset="100%" stop-color="#C5221F" />
        </linearGradient>
        <linearGradient id="connectionGradient" x1="0%" y1="0%" x2="100%" y2="0%">
            <stop offset="0%" stop-color="#3ECF8E" />
            <stop offset="100%" stop-color="#4285F4" />
        </linearGradient>
        <filter id="glow" x="-20%" y="-20%" width="140%" height="140%">
            <feGaussianBlur stdDeviation="3" result="blur"/>
            <feComposite in="SourceGraphic" in2="blur" operator="over"/>
        </filter>
        <!-- Animation definitions -->
        <style>
            @keyframes pulse {
                0% { opacity: 0.4; }
                50% { opacity: 0.8; }
                100% { opacity: 0.4; }
            }
            .pulsing {
                animation: pulse 3s infinite ease-in-out;
            }
            @keyframes float {
                0%, 100% { transform: translateY(0); }
                50% { transform: translateY(-5px); }
            }
            .floating {
                animation: float 3s ease-in-out infinite;
            }
            @keyframes spin {
                from { transform: rotate(0deg); }
                to { transform: rotate(360deg); }
            }
            .spinning {
                animation: spin 20s linear infinite;
                transform-origin: center;
            }
            @keyframes flow {
                0% { stroke-dashoffset: 24; }
                100% { stroke-dashoffset: 0; }
            }
            .flowing {
                stroke-dasharray: 8 4;
                animation: flow 1.5s linear infinite;
            }
        </style>
    </defs>
    
    <!-- Background -->
    <rect width="800" height="300" fill="url(#bgGradient)"/>
    
    <!-- Stars -->
    <g class="pulsing">
        <circle cx="50" cy="30" r="1" fill="#FFFFFF" opacity="0.7" />
        <circle cx="120" cy="50" r="1.5" fill="#FFFFFF" opacity="0.9" />
        <circle cx="200" cy="25" r="1" fill="#FFFFFF" opacity="0.6" />
        <circle cx="280" cy="15" r="1" fill="#FFFFFF" opacity="0.8" />
        <circle cx="350" cy="40" r="1.5" fill="#FFFFFF" opacity="0.7" />
        <circle cx="430" cy="20" r="1" fill="#FFFFFF" opacity="0.6" />
        <circle cx="500" cy="35" r="1" fill="#FFFFFF" opacity="0.8" />
        <circle cx="550" cy="25" r="1.5" fill="#FFFFFF" opacity="0.7" />
        <circle cx="620" cy="15" r="1" fill="#FFFFFF" opacity="0.6" />
        <circle cx="690" cy="45" r="1.5" fill="#FFFFFF" opacity="0.9" />
        <circle cx="750" cy="30" r="1" fill="#FFFFFF" opacity="0.7" />
    </g>
    
    <!-- Orbital rings -->
    <circle cx="400" cy="150" r="120" fill="none" stroke="#3ECF8E" stroke-width="0.5" opacity="0.3" />
    <circle cx="400" cy="150" r="90" fill="none" stroke="#4285F4" stroke-width="0.5" opacity="0.3" />
    <circle cx="400" cy="150" r="60" fill="none" stroke="#7B68EE" stroke-width="0.5" opacity="0.3" />
    
    <!-- MCP Space Center -->
    <g transform="translate(400, 150)" filter="url(#glow)">
        <circle r="40" fill="url(#mcpGradient)" />
        <text x="0" y="5" text-anchor="middle" font-family="Arial" fill="#FFFFFF" font-weight="bold" font-size="16">MCP</text>
        <text x="0" y="25" text-anchor="middle" font-family="Arial" fill="#FFFFFF" font-weight="bold" font-size="16">Space</text>
    </g>
    
    <!-- Spinning orbit -->
    <g class="spinning" transform="translate(400,150)">
        <path d="M-120,0 A120,40 0 0,1 120,0" fill="none" stroke="#3ECF8E" stroke-width="0.5" opacity="0.3" />
        <path d="M120,0 A120,40 0 0,1 -120,0" fill="none" stroke="#3ECF8E" stroke-width="0.5" opacity="0.3" />
    </g>
    
    <!-- Frontend Component -->
    <g transform="translate(100, 150)" filter="url(#glow)">
        <rect x="-60" y="-40" width="120" height="80" rx="10" fill="url(#frontendGradient)" />
        <text x="0" y="-10" text-anchor="middle" font-family="Arial" fill="#FFFFFF" font-weight="bold" font-size="14">Frontend</text>
        <text x="0" y="15" text-anchor="middle" font-family="Arial" fill="#FFFFFF" font-size="12">Next.js</text>
        <text x="0" y="35" text-anchor="middle" font-family="Arial" fill="#FFFFFF" font-size="12">UI/UX</text>
    </g>
    
    <!-- ADK Component -->
    <g transform="translate(700, 150)" filter="url(#glow)" >
        <rect x="-60" y="-40" width="120" height="80" rx="10" fill="url(#adkGradient)" />
        <text x="0" y="-10" text-anchor="middle" font-family="Arial" fill="#FFFFFF" font-weight="bold" font-size="14">Google ADK</text>
        <text x="0" y="15" text-anchor="middle" font-family="Arial" fill="#FFFFFF" font-size="12">AI Agents</text>
        <text x="0" y="35" text-anchor="middle" font-family="Arial" fill="#FFFFFF" font-size="12">Code Gen</text>
    </g>
    
    <!-- Connection flows -->
    <g filter="url(#glow)">
        <!-- Frontend to MCP -->
        <path d="M260,150 C400,150 340,150 355,150" fill="none" stroke="#3ECF8E" stroke-width="2" class="flowing" />
        <polygon points="355,150 345,145 345,155" fill="#3ECF8E" />
        
        <!-- MCP to Frontend -->
        <path d="M355,130 C340,130 300,130 260,130" fill="none" stroke="#3ECF8E" stroke-width="2" class="flowing" />
        <polygon points="260,130 270,125 270,135" fill="#3ECF8E" />
        
        <!-- ADK to MCP -->
        <path d="M540,150 C500,150 460,150 445,150" fill="none" stroke="#EA4335" stroke-width="2" class="flowing" />
        <polygon points="445,150 455,145 455,155" fill="#EA4335" />
        
        <!-- MCP to ADK -->
        <path d="M445,130 C460,130 500,130 540,130" fill="none" stroke="#EA4335" stroke-width="2" class="flowing" />
        <polygon points="540,130 530,125 530,135" fill="#EA4335" />
    </g>
    
    <!-- User -->
    <g transform="translate(200, 60)" filter="url(#glow)">
        <circle r="20" fill="#4285F4" opacity="0.8" />
        <text x="0" y="5" text-anchor="middle" font-family="Arial" fill="#FFFFFF" font-size="14">👤</text>
        <text x="0" y="35" text-anchor="middle" font-family="Arial" fill="#FFFFFF" font-size="12">User</text>
        
        <!-- User to Frontend -->
        <path d="M0,20 C0,40 0,70 0,90" fill="none" stroke="#4285F4" stroke-width="2" class="flowing" />
        <polygon points="0,90 -5,80 5,80" fill="#4285F4" />
    </g>
    
    <!-- Deployment -->
    <g transform="translate(200, 240)" filter="url(#glow)">
        <circle r="20" fill="#F38020" opacity="0.8" />
        <text x="0" y="5" text-anchor="middle" font-family="Arial" fill="#FFFFFF" font-size="14">🚀</text>
        <text x="0" y="35" text-anchor="middle" font-family="Arial" fill="#FFFFFF" font-size="12">Deployment</text>
        
        <!-- Frontend to Deployment -->
        <path d="M0,-30 C0,-50 0,-70 0,-90" fill="none" stroke="#F38020" stroke-width="2" class="flowing" />
        <polygon points="0,-90 -5,-80 5,-80" fill="#F38020" />
    </g>
    
    <!-- AI Models -->
    <g transform="translate(600, 60)" filter="url(#glow)">
        <circle r="20" fill="#7B68EE" opacity="0.8" />
        <text x="0" y="5" text-anchor="middle" font-family="Arial" fill="#FFFFFF" font-size="14">🧠</text>
        <text x="0" y="35" text-anchor="middle" font-family="Arial" fill="#FFFFFF" font-size="12">Gemini API</text>
        
        <!-- AI to ADK -->
        <path d="M0,20 C0,40 0,70 0,90" fill="none" stroke="#7B68EE" stroke-width="2" class="flowing" />
        <polygon points="0,90 -5,80 5,80" fill="#7B68EE" />
    </g>
    
    <!-- Database -->
    <g transform="translate(600, 240)" filter="url(#glow)">
        <circle r="20" fill="#3ECF8E" opacity="0.8" />
        <text x="0" y="5" text-anchor="middle" font-family="Arial" fill="#FFFFFF" font-size="14">💾</text>
        <text x="0" y="35" text-anchor="middle" font-family="Arial" fill="#FFFFFF" font-size="12">Supabase</text>
        
        <!-- ADK to Database -->
        <path d="M0,-30 C0,-50 0,-70 0,-90" fill="none" stroke="#3ECF8E" stroke-width="2" class="flowing" />
        <polygon points="0,-90 -5,-80 5,-80" fill="#3ECF8E" />
    </g>
    
    <!-- Title -->
    <text x="400" y="30" text-anchor="middle" fill="#FFFFFF" font-family="Arial" font-weight="bold" font-size="24">MCP Space Platform</text>
    <text x="400" y="250" text-anchor="middle" fill="#FFFFFF" font-family="Arial" font-weight="bold" font-size="16">No-Code AI Tool Builder with</text>
    <text x="400" y="270" text-anchor="middle" fill="#FFFFFF" font-family="Arial" font-weight="bold" font-size="16">Model Context Protocol</text>
</svg>
