<?xml version="1.0" encoding="UTF-8"?>
<svg width="80" height="80" viewBox="0 0 80 80" xmlns="http://www.w3.org/2000/svg">
  <!-- Stars -->
  <circle cx="10" cy="10" r="1.5" fill="#ffffff" opacity="0.8"/>
  <circle cx="25" cy="15" r="1.2" fill="#ffffff" opacity="0.7"/>
  <circle cx="40" cy="8" r="1.8" fill="#ffffff" opacity="0.9"/>
  <circle cx="55" cy="20" r="1.4" fill="#ffffff" opacity="0.8"/>
  <circle cx="70" cy="12" r="1.3" fill="#ffffff" opacity="0.7"/>
  <circle cx="15" cy="30" r="1.7" fill="#ffffff" opacity="0.8"/>
  <circle cx="32" cy="40" r="1.9" fill="#ffffff" opacity="0.9"/>
  <circle cx="60" cy="35" r="1.5" fill="#ffffff" opacity="0.8"/>
  <circle cx="50" cy="50" r="1.6" fill="#ffffff" opacity="0.8"/>
  <circle cx="20" cy="60" r="1.3" fill="#ffffff" opacity="0.7"/>
  <circle cx="35" cy="65" r="1.8" fill="#ffffff" opacity="0.9"/>
  <circle cx="65" cy="55" r="1.4" fill="#ffffff" opacity="0.8"/>
  <circle cx="45" cy="70" r="1.5" fill="#ffffff" opacity="0.8"/>
  
  <!-- Connecting lines -->
  <line x1="10" y1="10" x2="25" y2="15" stroke="#38bdf8" stroke-width="0.5" opacity="0.3"/>
  <line x1="25" y1="15" x2="40" y2="8" stroke="#38bdf8" stroke-width="0.5" opacity="0.3"/>
  <line x1="40" y1="8" x2="55" y2="20" stroke="#38bdf8" stroke-width="0.5" opacity="0.3"/>
  <line x1="55" y1="20" x2="70" y2="12" stroke="#38bdf8" stroke-width="0.5" opacity="0.3"/>
  <line x1="15" y1="30" x2="25" y2="15" stroke="#38bdf8" stroke-width="0.5" opacity="0.3"/>
  <line x1="15" y1="30" x2="32" y2="40" stroke="#38bdf8" stroke-width="0.5" opacity="0.3"/>
  <line x1="32" y1="40" x2="60" y2="35" stroke="#38bdf8" stroke-width="0.5" opacity="0.3"/>
  <line x1="60" y1="35" x2="55" y2="20" stroke="#38bdf8" stroke-width="0.5" opacity="0.3"/>
  <line x1="50" y1="50" x2="60" y2="35" stroke="#38bdf8" stroke-width="0.5" opacity="0.3"/>
  <line x1="50" y1="50" x2="35" y2="65" stroke="#38bdf8" stroke-width="0.5" opacity="0.3"/>
  <line x1="20" y1="60" x2="35" y2="65" stroke="#38bdf8" stroke-width="0.5" opacity="0.3"/>
  <line x1="35" y1="65" x2="45" y2="70" stroke="#38bdf8" stroke-width="0.5" opacity="0.3"/>
  <line x1="45" y1="70" x2="65" y2="55" stroke="#38bdf8" stroke-width="0.5" opacity="0.3"/>
  <line x1="65" y1="55" x2="50" y2="50" stroke="#38bdf8" stroke-width="0.5" opacity="0.3"/>
</svg>
