<?xml version="1.0" encoding="UTF-8"?>
<svg width="800px" height="400px" viewBox="0 0 800 400" version="1.1" xmlns="http://www.w3.org/2000/svg">
    <defs>
        <linearGradient id="bgGradient" x1="0%" y1="0%" x2="100%" y2="100%">
            <stop offset="0%" stop-color="#000022" />
            <stop offset="100%" stop-color="#220033" />
        </linearGradient>
        <linearGradient id="googleGradient" x1="0%" y1="0%" x2="100%" y2="100%">
            <stop offset="0%" stop-color="#4285F4" />
            <stop offset="33%" stop-color="#EA4335" />
            <stop offset="66%" stop-color="#FBBC05" />
            <stop offset="100%" stop-color="#34A853" />
        </linearGradient>
        <linearGradient id="supabaseGradient" x1="0%" y1="0%" x2="100%" y2="100%">
            <stop offset="0%" stop-color="#3ECF8E" />
            <stop offset="100%" stop-color="#2E9D6C" />
        </linearGradient>
        <linearGradient id="nextjsGradient" x1="0%" y1="0%" x2="100%" y2="100%">
            <stop offset="0%" stop-color="#FFFFFF" />
            <stop offset="100%" stop-color="#AAAAAA" />
        </linearGradient>
        <linearGradient id="userGradient" x1="0%" y1="0%" x2="100%" y2="100%">
            <stop offset="0%" stop-color="#7B68EE" />
            <stop offset="100%" stop-color="#9370DB" />
        </linearGradient>
        <filter id="glow" x="-20%" y="-20%" width="140%" height="140%">
            <feGaussianBlur stdDeviation="3" result="blur"/>
            <feComposite in="SourceGraphic" in2="blur" operator="over"/>
        </filter>
        <!-- Animation definitions -->
        <style>
            @keyframes pulse {
                0% { opacity: 0.4; }
                50% { opacity: 0.8; }
                100% { opacity: 0.4; }
            }
            .pulsing {
                animation: pulse 3s infinite ease-in-out;
            }
            @keyframes flow {
                0% { stroke-dashoffset: 24; }
                100% { stroke-dashoffset: 0; }
            }
            .flowing {
                stroke-dasharray: 8 4;
                animation: flow 1.5s linear infinite;
            }
            @keyframes bounce {
                0%, 100% { transform: translateY(0); }
                50% { transform: translateY(-5px); }
            }
            .bouncing {
                animation: bounce 2s ease-in-out infinite;
            }
        </style>
    </defs>
    
    <!-- Background -->
    <rect width="800" height="400" fill="url(#bgGradient)"/>
    
    <!-- Stars -->
    <g class="pulsing">
        <circle cx="50" cy="30" r="1" fill="#FFFFFF" opacity="0.7" />
        <circle cx="120" cy="50" r="1.5" fill="#FFFFFF" opacity="0.9" />
        <circle cx="200" cy="25" r="1" fill="#FFFFFF" opacity="0.6" />
        <circle cx="280" cy="15" r="1" fill="#FFFFFF" opacity="0.8" />
        <circle cx="350" cy="40" r="1.5" fill="#FFFFFF" opacity="0.7" />
        <circle cx="430" cy="20" r="1" fill="#FFFFFF" opacity="0.6" />
        <circle cx="500" cy="35" r="1" fill="#FFFFFF" opacity="0.8" />
        <circle cx="550" cy="25" r="1.5" fill="#FFFFFF" opacity="0.7" />
        <circle cx="620" cy="15" r="1" fill="#FFFFFF" opacity="0.6" />
        <circle cx="690" cy="45" r="1.5" fill="#FFFFFF" opacity="0.9" />
        <circle cx="750" cy="30" r="1" fill="#FFFFFF" opacity="0.7" />
    </g>
    
    <!-- Connections Grid (decorative) -->
    <line x1="100" y1="0" x2="100" y2="400" stroke="#3ECF8E" stroke-width="0.5" opacity="0.1"/>
    <line x1="300" y1="0" x2="300" y2="400" stroke="#3ECF8E" stroke-width="0.5" opacity="0.1"/>
    <line x1="500" y1="0" x2="500" y2="400" stroke="#3ECF8E" stroke-width="0.5" opacity="0.1"/>
    <line x1="700" y1="0" x2="700" y2="400" stroke="#3ECF8E" stroke-width="0.5" opacity="0.1"/>
    <line x1="0" y1="100" x2="800" y2="100" stroke="#3ECF8E" stroke-width="0.5" opacity="0.1"/>
    <line x1="0" y1="200" x2="800" y2="200" stroke="#3ECF8E" stroke-width="0.5" opacity="0.1"/>
    <line x1="0" y1="300" x2="800" y2="300" stroke="#3ECF8E" stroke-width="0.5" opacity="0.1"/>
    
    <!-- Flow components - User, Frontend, Supabase, Google OAuth -->
    
    <!-- User icon -->
    <g transform="translate(100, 195)"  filter="url(#glow)">
        <circle r="30" fill="url(#userGradient)" />
        <circle cx="0" cy="-10" r="10" fill="#FFFFFF" opacity="0.9" />
        <path d="M-20,15 C-20,0 20,0 20,15 C20,30 -20,30 -20,15 Z" fill="#FFFFFF" opacity="0.9" />
        <text text-anchor="middle" y="55" fill="#FFFFFF" font-family="Arial" font-weight="bold" font-size="12">User</text>
    </g>
    
    <!-- Next.js Frontend -->
    <g transform="translate(300, 200)" filter="url(#glow)">
        <rect x="-40" y="-30" width="80" height="60" rx="8" fill="#000000" stroke="url(#nextjsGradient)" stroke-width="2" />
        <text text-anchor="middle" y="-5" fill="#FFFFFF" font-family="Arial" font-weight="bold" font-size="12">Next.js</text>
        <text text-anchor="middle" y="15" fill="#FFFFFF" font-family="Arial" font-weight="bold" font-size="12">Frontend</text>
        <text text-anchor="middle" y="55" fill="#FFFFFF" font-family="Arial" font-weight="bold" font-size="12">Auth Callback</text>
    </g>
    
    <!-- Supabase Auth -->
    <g transform="translate(500, 200)" filter="url(#glow)">
        <rect x="-40" y="-30" width="80" height="60" rx="8" fill="url(#supabaseGradient)" />
        <text text-anchor="middle" y="-5" fill="#FFFFFF" font-family="Arial" font-weight="bold" font-size="12">Supabase</text>
        <text text-anchor="middle" y="15" fill="#FFFFFF" font-family="Arial" font-weight="bold" font-size="12">Auth</text>
        <text text-anchor="middle" y="55" fill="#FFFFFF" font-family="Arial" font-weight="bold" font-size="12">Provider</text>
    </g>
    
    <!-- Google OAuth -->
    <g transform="translate(700, 200)" filter="url(#glow)">
        <circle r="35" fill="#FFFFFF" />
        <g transform="scale(0.7)">
            <path d="M-20,-20 L0,-20 L0,0 L-20,0 Z" fill="#EA4335" />
            <path d="M0,-20 L20,-20 L20,0 L0,0 Z" fill="#4285F4" />
            <path d="M-20,0 L0,0 L0,20 L-20,20 Z" fill="#FBBC05" />
            <path d="M0,0 L20,0 L20,20 L0,20 Z" fill="#34A853" />
        </g>
        <text text-anchor="middle" y="55" fill="#FFFFFF" font-family="Arial" font-weight="bold" font-size="12">Google OAuth</text>
    </g>
    
    <!-- Flow arrows -->
    <!-- User to Frontend - Login Request -->
    <line x1="130" y1="190" x2="250" y2="190" stroke="#FFFFFF" stroke-width="2" class="flowing" />
    <polygon points="250,190 240,185 240,195" fill="#FFFFFF" />
    <text x="190" y="175" text-anchor="middle" fill="#FFFFFF" font-family="Arial" font-size="10">1. Login Request</text>
    
    <!-- Frontend to Supabase -->
    <line x1="350" y1="190" x2="450" y2="190" stroke="#3ECF8E" stroke-width="2" class="flowing" />
    <polygon points="450,190 440,185 440,195" fill="#3ECF8E" />
    <text x="400" y="175" text-anchor="middle" fill="#FFFFFF" font-family="Arial" font-size="10">2. Auth Request</text>
    
    <!-- Supabase to Google -->
    <line x1="550" y1="190" x2="655" y2="190" stroke="#4285F4" stroke-width="2" class="flowing" />
    <polygon points="655,190 645,185 645,195" fill="#4285F4" />
    <text x="600" y="175" text-anchor="middle" fill="#FFFFFF" font-family="Arial" font-size="10">3. OAuth Request</text>
    
    <!-- Google to User -->
    <path d="M700,160 C700,100 400,100 100,160" fill="none" stroke="#EA4335" stroke-width="2" class="flowing" />
    <polygon points="100,160 110,155 110,165" fill="#EA4335" />
    <text x="400" y="90" text-anchor="middle" fill="#FFFFFF" font-family="Arial" font-size="10">4. Consent Screen</text>
    
    <!-- User back to Google -->
    <path d="M120,220 C120,270 400,270 680,220" fill="none" stroke="#FBBC05" stroke-width="2" class="flowing" />
    <polygon points="680,220 670,215 670,225" fill="#FBBC05" />
    <text x="400" y="290" text-anchor="middle" fill="#FFFFFF" font-family="Arial" font-size="10">5. User Grants Access</text>
    
    <!-- Google to Supabase -->
    <line x1="665" y1="210" x2="550" y2="210" stroke="#34A853" stroke-width="2" class="flowing" />
    <polygon points="550,210 560,205 560,215" fill="#34A853" />
    <text x="600" y="225" text-anchor="middle" fill="#FFFFFF" font-family="Arial" font-size="10">6. Auth Code</text>
    
    <!-- Supabase to Frontend -->
    <line x1="450" y1="210" x2="350" y2="210" stroke="#2E9D6C" stroke-width="2" class="flowing" />
    <polygon points="350,210 360,205 360,215" fill="#2E9D6C" />
    <text x="400" y="225" text-anchor="middle" fill="#FFFFFF" font-family="Arial" font-size="10">7. Auth Token</text>
    
    <!-- Frontend to User -->
    <line x1="250" y1="210" x2="140" y2="210" stroke="#9370DB" stroke-width="2" class="flowing" />
    <polygon points="140,210 150,205 150,215" fill="#9370DB" />
    <text x="190" y="225" text-anchor="middle" fill="#FFFFFF" font-family="Arial" font-size="10">8. Session Created</text>
    
    <!-- Title and Legend -->
    <text x="400" y="30" text-anchor="middle" fill="#FFFFFF" font-family="Arial" font-weight="bold" font-size="20">Google OAuth Authentication Flow</text>
    
    <!-- Legend -->
    <rect x="50" y="350" width="700" height="30" rx="15" fill="rgba(0,0,0,0.5)" />
    
    <circle cx="100" cy="365" r="7" fill="url(#userGradient)" />
    <text x="120" y="370" fill="#FFFFFF" font-family="Arial" font-size="12">User</text>
    
    <rect x="170" y="360" width="14" height="10" rx="2" fill="#000000" stroke="url(#nextjsGradient)" stroke-width="1" />
    <text x="210" y="370" fill="#FFFFFF" font-family="Arial" font-size="12">Next.js</text>
    
    <rect x="270" y="360" width="14" height="10" rx="2" fill="url(#supabaseGradient)" />
    <text x="320" y="370" fill="#FFFFFF" font-family="Arial" font-size="12">Supabase</text>
    
    <!-- <circle cx="370" cy="365" r="7" fill="#FFFFFF" /> -->
    <text x="400" y="370" fill="#FFFFFF" font-family="Arial" font-size="12">Google</text>
    
    <line x1="450" y1="365" x2="490" y2="365" stroke="#FFFFFF" stroke-width="2" class="flowing" />
    <text x="550" y="370" fill="#FFFFFF" font-family="Arial" font-size="12">Data Flow</text>
    
    <circle cx="620" cy="365" r="3" fill="#FFFFFF" class="pulsing" />
    <text x="650" y="370" fill="#FFFFFF" font-family="Arial" font-size="12">Action</text>
</svg>
