<?xml version="1.0" encoding="UTF-8"?>
<svg width="64" height="64" viewBox="0 0 64 64" xmlns="http://www.w3.org/2000/svg">
  <!-- Main satellite body -->
  <rect x="24" y="20" width="16" height="24" rx="2" fill="#334155" stroke="#38bdf8" stroke-width="1" opacity="0.9"/>
  
  <!-- Solar panels -->
  <rect x="8" y="28" width="16" height="8" fill="#0284c7" stroke="#38bdf8" stroke-width="0.5" opacity="0.8"/>
  <rect x="40" y="28" width="16" height="8" fill="#0284c7" stroke="#38bdf8" stroke-width="0.5" opacity="0.8"/>
  
  <!-- Solar panel connectors -->
  <rect x="16" y="30" width="8" height="4" fill="#475569" stroke="#38bdf8" stroke-width="0.5"/>
  <rect x="40" y="30" width="8" height="4" fill="#475569" stroke="#38bdf8" stroke-width="0.5"/>
  
  <!-- Satellite dish -->
  <circle cx="32" cy="16" r="6" fill="#475569" stroke="#38bdf8" stroke-width="0.5"/>
  <ellipse cx="32" cy="16" rx="5" ry="2" fill="none" stroke="#38bdf8" stroke-width="0.5"/>
  <line x1="32" y1="16" x2="32" y2="20" stroke="#38bdf8" stroke-width="0.5"/>
  
  <!-- Antenna -->
  <line x1="32" y1="12" x2="32" y2="4" stroke="#38bdf8" stroke-width="0.5"/>
  <circle cx="32" cy="4" r="1" fill="#38bdf8" opacity="0.8"/>
  
  <!-- Signal indicators -->
  <path d="M 36 46 Q 40 42 44 46" stroke="#38bdf8" stroke-width="0.5" fill="none" opacity="0.7"/>
  <path d="M 36 49 Q 40 45 44 49" stroke="#38bdf8" stroke-width="0.5" fill="none" opacity="0.5"/>
  <path d="M 36 52 Q 40 48 44 52" stroke="#38bdf8" stroke-width="0.5" fill="none" opacity="0.3"/>
  
  <!-- Opposite side signal indicators -->
  <path d="M 28 46 Q 24 42 20 46" stroke="#38bdf8" stroke-width="0.5" fill="none" opacity="0.7"/>
  <path d="M 28 49 Q 24 45 20 49" stroke="#38bdf8" stroke-width="0.5" fill="none" opacity="0.5"/>
  <path d="M 28 52 Q 24 48 20 52" stroke="#38bdf8" stroke-width="0.5" fill="none" opacity="0.3"/>
  
  <!-- Status lights -->
  <circle cx="32" cy="24" r="1" fill="#34d399" opacity="0.8"/>
  <circle cx="32" cy="28" r="1" fill="#38bdf8" opacity="0.8"/>
  <circle cx="32" cy="32" r="1" fill="#fb923c" opacity="0.8"/>
  
  <!-- Glow effect -->
  <circle cx="32" cy="32" r="20" fill="none" stroke="#38bdf8" stroke-width="0.5" opacity="0.1"/>
</svg>
