<svg width="500" height="500" viewBox="0 0 500 500" xmlns="http://www.w3.org/2000/svg">
  <rect width="500" height="500" fill="#0f172a"/>
  
  <!-- Small stars -->
  <g fill="#ffffff" opacity="0.7">
    <circle cx="20" cy="30" r="0.7"/>
    <circle cx="50" cy="45" r="0.5"/>
    <circle cx="80" cy="15" r="0.8"/>
    <circle cx="110" cy="65" r="0.6"/>
    <circle cx="140" cy="35" r="0.7"/>
    <circle cx="170" cy="85" r="0.5"/>
    <circle cx="200" cy="25" r="0.6"/>
    <circle cx="230" cy="55" r="0.7"/>
    <circle cx="260" cy="15" r="0.5"/>
    <circle cx="290" cy="75" r="0.8"/>
    <circle cx="320" cy="35" r="0.6"/>
    <circle cx="350" cy="90" r="0.7"/>
    <circle cx="380" cy="20" r="0.5"/>
    <circle cx="410" cy="65" r="0.8"/>
    <circle cx="440" cy="30" r="0.6"/>
    <circle cx="470" cy="80" r="0.7"/>
    
    <circle cx="25" cy="120" r="0.8"/>
    <circle cx="55" cy="140" r="0.6"/>
    <circle cx="85" cy="105" r="0.7"/>
    <circle cx="115" cy="155" r="0.5"/>
    <circle cx="145" cy="125" r="0.6"/>
    <circle cx="175" cy="175" r="0.8"/>
    <circle cx="205" cy="115" r="0.7"/>
    <circle cx="235" cy="145" r="0.5"/>
    <circle cx="265" cy="105" r="0.6"/>
    <circle cx="295" cy="165" r="0.8"/>
    <circle cx="325" cy="125" r="0.7"/>
    <circle cx="355" cy="180" r="0.5"/>
    <circle cx="385" cy="110" r="0.6"/>
    <circle cx="415" cy="155" r="0.7"/>
    <circle cx="445" cy="120" r="0.8"/>
    <circle cx="475" cy="170" r="0.6"/>
    
    <!-- Repeat pattern for more rows -->
    <circle cx="20" cy="210" r="0.7"/>
    <circle cx="50" cy="225" r="0.5"/>
    <circle cx="80" cy="195" r="0.8"/>
    <circle cx="110" cy="245" r="0.6"/>
    <circle cx="140" cy="215" r="0.7"/>
    <circle cx="170" cy="265" r="0.5"/>
    <circle cx="200" cy="205" r="0.6"/>
    <circle cx="230" cy="235" r="0.7"/>
    <circle cx="260" cy="195" r="0.5"/>
    <circle cx="290" cy="255" r="0.8"/>
    <circle cx="320" cy="215" r="0.6"/>
    <circle cx="350" cy="270" r="0.7"/>
    <circle cx="380" cy="200" r="0.5"/>
    <circle cx="410" cy="245" r="0.8"/>
    <circle cx="440" cy="210" r="0.6"/>
    <circle cx="470" cy="260" r="0.7"/>
    
    <circle cx="25" cy="300" r="0.8"/>
    <circle cx="55" cy="320" r="0.6"/>
    <circle cx="85" cy="285" r="0.7"/>
    <circle cx="115" cy="335" r="0.5"/>
    <circle cx="145" cy="305" r="0.6"/>
    <circle cx="175" cy="355" r="0.8"/>
    <circle cx="205" cy="295" r="0.7"/>
    <circle cx="235" cy="325" r="0.5"/>
    <circle cx="265" cy="285" r="0.6"/>
    <circle cx="295" cy="345" r="0.8"/>
    <circle cx="325" cy="305" r="0.7"/>
    <circle cx="355" cy="360" r="0.5"/>
    <circle cx="385" cy="290" r="0.6"/>
    <circle cx="415" cy="335" r="0.7"/>
    <circle cx="445" cy="300" r="0.8"/>
    <circle cx="475" cy="350" r="0.6"/>
    
    <circle cx="20" cy="390" r="0.7"/>
    <circle cx="50" cy="405" r="0.5"/>
    <circle cx="80" cy="375" r="0.8"/>
    <circle cx="110" cy="425" r="0.6"/>
    <circle cx="140" cy="395" r="0.7"/>
    <circle cx="170" cy="445" r="0.5"/>
    <circle cx="200" cy="385" r="0.6"/>
    <circle cx="230" cy="415" r="0.7"/>
    <circle cx="260" cy="375" r="0.5"/>
    <circle cx="290" cy="435" r="0.8"/>
    <circle cx="320" cy="395" r="0.6"/>
    <circle cx="350" cy="450" r="0.7"/>
    <circle cx="380" cy="380" r="0.5"/>
    <circle cx="410" cy="425" r="0.8"/>
    <circle cx="440" cy="390" r="0.6"/>
    <circle cx="470" cy="440" r="0.7"/>
  </g>
  
  <!-- Medium stars -->
  <g fill="#ffffff" opacity="0.8">
    <circle cx="35" cy="40" r="1.0"/>
    <circle cx="95" cy="75" r="1.2"/>
    <circle cx="155" cy="25" r="1.1"/>
    <circle cx="215" cy="85" r="1.0"/>
    <circle cx="275" cy="35" r="1.2"/>
    <circle cx="335" cy="80" r="1.1"/>
    <circle cx="395" cy="45" r="1.0"/>
    <circle cx="455" cy="90" r="1.2"/>
    
    <circle cx="45" cy="135" r="1.1"/>
    <circle cx="105" cy="180" r="1.0"/>
    <circle cx="165" cy="130" r="1.2"/>
    <circle cx="225" cy="175" r="1.1"/>
    <circle cx="285" cy="125" r="1.0"/>
    <circle cx="345" cy="185" r="1.2"/>
    <circle cx="405" cy="135" r="1.1"/>
    <circle cx="465" cy="190" r="1.0"/>
    
    <circle cx="35" cy="220" r="1.2"/>
    <circle cx="95" cy="255" r="1.1"/>
    <circle cx="155" cy="205" r="1.0"/>
    <circle cx="215" cy="265" r="1.2"/>
    <circle cx="275" cy="215" r="1.1"/>
    <circle cx="335" cy="260" r="1.0"/>
    <circle cx="395" cy="225" r="1.2"/>
    <circle cx="455" cy="270" r="1.1"/>
    
    <circle cx="45" cy="315" r="1.0"/>
    <circle cx="105" cy="360" r="1.2"/>
    <circle cx="165" cy="310" r="1.1"/>
    <circle cx="225" cy="355" r="1.0"/>
    <circle cx="285" cy="305" r="1.2"/>
    <circle cx="345" cy="365" r="1.1"/>
    <circle cx="405" cy="315" r="1.0"/>
    <circle cx="465" cy="370" r="1.2"/>
    
    <circle cx="35" cy="400" r="1.1"/>
    <circle cx="95" cy="435" r="1.0"/>
    <circle cx="155" cy="385" r="1.2"/>
    <circle cx="215" cy="445" r="1.1"/>
    <circle cx="275" cy="395" r="1.0"/>
    <circle cx="335" cy="440" r="1.2"/>
    <circle cx="395" cy="405" r="1.1"/>
    <circle cx="455" cy="450" r="1.0"/>
  </g>
  
  <!-- Large stars -->
  <g fill="#ffffff">
    <circle cx="65" cy="55" r="1.5"/>
    <circle cx="175" cy="35" r="1.4"/>
    <circle cx="245" cy="95" r="1.6"/>
    <circle cx="355" cy="45" r="1.5"/>
    <circle cx="425" cy="75" r="1.4"/>
    
    <circle cx="75" cy="155" r="1.6"/>
    <circle cx="185" cy="145" r="1.5"/>
    <circle cx="255" cy="195" r="1.4"/>
    <circle cx="365" cy="135" r="1.6"/>
    <circle cx="435" cy="185" r="1.5"/>
    
    <circle cx="65" cy="235" r="1.4"/>
    <circle cx="175" cy="265" r="1.6"/>
    <circle cx="245" cy="225" r="1.5"/>
    <circle cx="355" cy="275" r="1.4"/>
    <circle cx="425" cy="235" r="1.6"/>
    
    <circle cx="75" cy="335" r="1.5"/>
    <circle cx="185" cy="315" r="1.4"/>
    <circle cx="255" cy="375" r="1.6"/>
    <circle cx="365" cy="325" r="1.5"/>
    <circle cx="435" cy="385" r="1.4"/>
    
    <circle cx="65" cy="415" r="1.6"/>
    <circle cx="175" cy="435" r="1.5"/>
    <circle cx="245" cy="395" r="1.4"/>
    <circle cx="355" cy="455" r="1.6"/>
    <circle cx="425" cy="415" r="1.5"/>
  </g>
  
  <!-- Extra bright stars with glow -->
  <g>
    <circle cx="125" cy="85" r="1.8" fill="#ffffff"/>
    <circle cx="125" cy="85" r="3" fill="none" stroke="#ffffff" stroke-width="0.3" opacity="0.3"/>
    
    <circle cx="325" cy="65" r="1.8" fill="#ffffff"/>
    <circle cx="325" cy="65" r="3" fill="none" stroke="#ffffff" stroke-width="0.3" opacity="0.3"/>
    
    <circle cx="85" cy="215" r="1.8" fill="#ffffff"/>
    <circle cx="85" cy="215" r="3" fill="none" stroke="#ffffff" stroke-width="0.3" opacity="0.3"/>
    
    <circle cx="385" cy="175" r="1.8" fill="#ffffff"/>
    <circle cx="385" cy="175" r="3" fill="none" stroke="#ffffff" stroke-width="0.3" opacity="0.3"/>
    
    <circle cx="145" cy="345" r="1.8" fill="#ffffff"/>
    <circle cx="145" cy="345" r="3" fill="none" stroke="#ffffff" stroke-width="0.3" opacity="0.3"/>
    
    <circle cx="265" cy="425" r="1.8" fill="#ffffff"/>
    <circle cx="265" cy="425" r="3" fill="none" stroke="#ffffff" stroke-width="0.3" opacity="0.3"/>
    
    <circle cx="425" cy="325" r="1.8" fill="#ffffff"/>
    <circle cx="425" cy="325" r="3" fill="none" stroke="#ffffff" stroke-width="0.3" opacity="0.3"/>
  </g>
  
  <!-- Subtle color stars -->
  <circle cx="225" cy="125" r="1.5" fill="#38bdf8" opacity="0.6"/>
  <circle cx="375" cy="95" r="1.4" fill="#fb923c" opacity="0.6"/>
  <circle cx="125" cy="275" r="1.6" fill="#a78bfa" opacity="0.6"/>
  <circle cx="345" cy="225" r="1.5" fill="#4ade80" opacity="0.6"/>
  <circle cx="195" cy="345" r="1.4" fill="#f472b6" opacity="0.6"/>
  <circle cx="395" cy="395" r="1.6" fill="#fbbf24" opacity="0.6"/>
</svg>
