<?xml version="1.0" encoding="UTF-8"?>
<svg width="800px" height="100px" viewBox="0 0 800 100" version="1.1" xmlns="http://www.w3.org/2000/svg">
    <defs>
        <linearGradient id="gradient" x1="0%" y1="0%" x2="100%" y2="0%">
            <stop offset="0%" stop-color="#3ECF8E" />
            <stop offset="100%" stop-color="#2B90FF" />
        </linearGradient>
    </defs>
    <g stroke="none" stroke-width="1" fill="none" fill-rule="evenodd">
        <!-- Main outline -->
        <rect x="100" y="20" width="600" height="60" rx="10" stroke="url(#gradient)" stroke-width="2" />
        
        <!-- File icons -->
        <rect x="150" y="35" width="30" height="40" rx="3" fill="#3ECF8E" opacity="0.8" />
        <rect x="155" y="45" width="20" height="2" fill="white" />
        <rect x="155" y="50" width="15" height="2" fill="white" />
        <rect x="155" y="55" width="10" height="2" fill="white" />
        
        <rect x="300" y="35" width="30" height="40" rx="3" fill="#2B90FF" opacity="0.8" />
        <rect x="305" y="45" width="20" height="2" fill="white" />
        <rect x="305" y="50" width="15" height="2" fill="white" />
        <rect x="305" y="55" width="10" height="2" fill="white" />
        
        <rect x="450" y="35" width="30" height="40" rx="3" fill="#3ECF8E" opacity="0.8" />
        <rect x="455" y="45" width="20" height="2" fill="white" />
        <rect x="455" y="50" width="15" height="2" fill="white" />
        <rect x="455" y="55" width="10" height="2" fill="white" />
        
        <rect x="600" y="35" width="30" height="40" rx="3" fill="#2B90FF" opacity="0.8" />
        <rect x="605" y="45" width="20" height="2" fill="white" />
        <rect x="605" y="50" width="15" height="2" fill="white" />
        <rect x="605" y="55" width="10" height="2" fill="white" />
        
        <!-- Connecting lines -->
        <path d="M190,50 L290,50" stroke="url(#gradient)" stroke-width="1" />
        <path d="M340,50 L440,50" stroke="url(#gradient)" stroke-width="1" />
        <path d="M490,50 L590,50" stroke="url(#gradient)" stroke-width="1" />
    </g>
</svg>
