<?xml version="1.0" encoding="UTF-8"?>
<svg width="800px" height="100px" viewBox="0 0 800 100" version="1.1" xmlns="http://www.w3.org/2000/svg">
    <defs>
        <linearGradient id="gradient" x1="0%" y1="0%" x2="100%" y2="0%">
            <stop offset="0%" stop-color="#4285F4" />
            <stop offset="100%" stop-color="#3ECF8E" />
        </linearGradient>
    </defs>
    <g stroke="none" stroke-width="1" fill="none" fill-rule="evenodd">
        <!-- Server icon -->
        <rect x="350" y="20" width="100" height="60" rx="5" stroke="url(#gradient)" stroke-width="2" />
        
        <!-- Server details -->
        <rect x="365" y="30" width="70" height="5" rx="2" fill="#4285F4" opacity="0.8" />
        <rect x="365" y="40" width="70" height="5" rx="2" fill="#34A853" opacity="0.8" />
        <rect x="365" y="50" width="70" height="5" rx="2" fill="#FBBC05" opacity="0.8" />
        <rect x="365" y="60" width="70" height="5" rx="2" fill="#EA4335" opacity="0.8" />
        
        <!-- Connection lines to server -->
        <path d="M200,50 L340,50" stroke="url(#gradient)" stroke-width="1" stroke-dasharray="5,3" />
        <path d="M460,50 L600,50" stroke="url(#gradient)" stroke-width="1" stroke-dasharray="5,3" />
        
        <!-- Client icon -->
        <circle cx="180" cy="50" r="20" fill="#4285F4" opacity="0.6" />
        <text x="180" y="55" font-family="Arial" font-size="16" fill="white" text-anchor="middle">👤</text>
        
        <!-- Database icon -->
        <rect x="610" y="35" width="40" height="30" rx="3" fill="#3ECF8E" opacity="0.6" />
        <rect x="615" y="40" width="30" height="4" rx="1" fill="white" />
        <rect x="615" y="48" width="30" height="4" rx="1" fill="white" />
        <rect x="615" y="56" width="30" height="4" rx="1" fill="white" />
    </g>
</svg>
