<?xml version="1.0" encoding="UTF-8"?>
<svg width="800px" height="100px" viewBox="0 0 800 100" version="1.1" xmlns="http://www.w3.org/2000/svg">
    <defs>
        <linearGradient id="gradient" x1="0%" y1="0%" x2="100%" y2="0%">
            <stop offset="0%" stop-color="#EA4335" />
            <stop offset="100%" stop-color="#4285F4" />
        </linearGradient>
    </defs>
    <g stroke="none" stroke-width="1" fill="none" fill-rule="evenodd">
        <rect x="150" y="30" width="500" height="40" rx="20" fill="url(#gradient)" opacity="0.2" />
        
        <!-- Technical requirements icons -->
        <circle cx="200" cy="50" r="15" fill="#EA4335" />
        <text x="200" y="55" font-family="Arial" font-size="12" fill="white" text-anchor="middle">🐍</text>
        
        <circle cx="300" cy="50" r="15" fill="#FBBC05" />
        <text x="300" y="55" font-family="Arial" font-size="12" fill="white" text-anchor="middle">🤖</text>
        
        <circle cx="400" cy="50" r="15" fill="#34A853" />
        <text x="400" y="55" font-family="Arial" font-size="12" fill="white" text-anchor="middle">💾</text>
        
        <circle cx="500" cy="50" r="15" fill="#4285F4" />
        <text x="500" y="55" font-family="Arial" font-size="12" fill="white" text-anchor="middle">🔧</text>
        
        <circle cx="600" cy="50" r="15" fill="#EA4335" />
        <text x="600" y="55" font-family="Arial" font-size="12" fill="white" text-anchor="middle">🌐</text>
        
        <!-- Connecting curve -->
        <path d="M150,50 Q175,30 200,50 Q225,70 250,50 Q275,30 300,50 Q325,70 350,50 Q375,30 400,50 Q425,70 450,50 Q475,30 500,50 Q525,70 550,50 Q575,30 600,50 Q625,70 650,50" stroke="url(#gradient)" stroke-width="1" fill="none" />
    </g>
</svg>
